<svg width="64" height="46" viewBox="0 0 64 46" fill="none" xmlns="http://www.w3.org/2000/svg">
<path fill-rule="evenodd" clip-rule="evenodd" d="M53.2258 0.290487C53.6134 -0.0969135 54.2416 -0.0968113 54.629 0.290689C60.629 6.29329 64 14.4331 64 22.9203C64 31.4075 60.629 39.5473 54.629 45.5498C54.2416 45.9374 53.6134 45.9375 53.2258 45.5501C52.8383 45.1627 52.8381 44.5344 53.2255 44.1469C58.854 38.5165 62.016 30.8814 62.016 22.9203C62.016 14.9592 58.854 7.32409 53.2255 1.69369C52.8381 1.30609 52.8383 0.677887 53.2258 0.290487ZM10.7829 0.290887C11.1702 0.678587 11.1699 1.30679 10.7822 1.69409C7.9931 4.48069 5.7806 7.78959 4.271 11.4317C2.7614 15.0738 1.9844 18.9777 1.9844 22.9203C1.9844 26.8629 2.7614 30.7668 4.271 34.4089C5.7806 38.051 7.9931 41.3599 10.7822 44.1464C11.1699 44.5338 11.1702 45.162 10.7829 45.5497C10.3955 45.9373 9.7673 45.9376 9.3796 45.5503C6.4061 42.5794 4.0472 39.0517 2.4378 35.1687C0.828401 31.2857 0 27.1236 0 22.9203C0 18.717 0.828401 14.5549 2.4378 10.6719C4.0472 6.78889 6.4061 3.26109 9.3796 0.290288C9.7673 -0.0970119 10.3955 -0.0967129 10.7829 0.290887ZM17.0435 6.55169C17.4309 6.93919 17.4308 7.56749 17.0433 7.95489C15.0783 9.91929 13.5195 12.2516 12.456 14.8186C11.3925 17.3855 10.8451 20.1369 10.8451 22.9154C10.8451 25.6939 11.3925 28.4452 12.456 31.0122C13.5195 33.5792 15.0783 35.9115 17.0433 37.8759C17.4308 38.2633 17.4309 38.8916 17.0435 39.2791C16.6561 39.6666 16.0278 39.6667 15.6403 39.2793C13.4909 37.1306 11.786 34.5795 10.6227 31.7718C9.4594 28.964 8.8607 25.9546 8.8607 22.9154C8.8607 19.8762 9.4594 16.8668 10.6227 14.059C11.786 11.2513 13.4909 8.70019 15.6403 6.55149C16.0278 6.16399 16.6561 6.16409 17.0435 6.55169ZM46.9646 6.55169C47.352 6.16409 47.9803 6.16399 48.3678 6.55149C50.5172 8.70019 52.2222 11.2513 53.3854 14.059C54.5487 16.8668 55.1474 19.8762 55.1474 22.9154C55.1474 25.9546 54.5487 28.964 53.3854 31.7718C52.2222 34.5795 50.5172 37.1306 48.3678 39.2793C47.9803 39.6667 47.352 39.6666 46.9646 39.2791C46.5772 38.8916 46.5773 38.2633 46.9648 37.8759C48.9298 35.9115 50.4886 33.5792 51.5521 31.0122C52.6156 28.4452 53.163 25.6939 53.163 22.9154C53.163 20.1369 52.6156 17.3855 51.5521 14.8186C50.4886 12.2516 48.9298 9.91929 46.9648 7.95489C46.5773 7.56749 46.5772 6.93919 46.9646 6.55169ZM23.2644 12.8219C23.6521 13.2091 23.6525 13.8374 23.2652 14.2251C20.9608 16.532 19.6664 19.6594 19.6664 22.9202C19.6664 26.1809 20.9608 29.3083 23.2652 31.6153C23.6525 32.003 23.6521 32.6312 23.2644 33.0185C22.8767 33.4058 22.2485 33.4054 21.8612 33.0177C19.1851 30.3387 17.6819 26.7069 17.6819 22.9202C17.6819 19.1335 19.1851 15.5017 21.8612 12.8226C22.2485 12.4349 22.8767 12.4346 23.2644 12.8219ZM40.7125 12.8234C41.0993 12.4353 41.7276 12.4342 42.1157 12.8211C43.4448 14.1457 44.4994 15.7196 45.2189 17.4526C45.9385 19.1857 46.3089 21.0437 46.3089 22.9202C46.3089 24.7967 45.9385 26.6547 45.2189 28.3877C44.4994 30.1207 43.4448 31.6947 42.1157 33.0193C41.7276 33.4061 41.0993 33.4051 40.7125 33.0169C40.3257 32.6288 40.3267 32.0005 40.7149 31.6137C41.859 30.4735 42.7668 29.1186 43.3862 27.6267C44.0056 26.1349 44.3245 24.5355 44.3245 22.9202C44.3245 21.3049 44.0056 19.7054 43.3862 18.2136C42.7668 16.7218 41.859 15.3669 40.7149 14.2266C40.3267 13.8398 40.3257 13.2116 40.7125 12.8234ZM31.9992 19.4873C30.1031 19.4873 28.5661 21.0244 28.5661 22.9204C28.5661 24.8165 30.1031 26.3535 31.9992 26.3535C33.8952 26.3535 35.4322 24.8165 35.4322 22.9204C35.4322 21.0244 33.8952 19.4873 31.9992 19.4873ZM26.5816 22.9204C26.5816 19.9284 29.0071 17.5029 31.9992 17.5029C34.9912 17.5029 37.4167 19.9284 37.4167 22.9204C37.4167 25.9124 34.9912 28.338 31.9992 28.338C29.0071 28.338 26.5816 25.9124 26.5816 22.9204Z" fill="#4FA67C"/>
</svg>
