<svg width="130" height="32" viewBox="0 0 130 32" fill="none" xmlns="http://www.w3.org/2000/svg">
<path fill-rule="evenodd" clip-rule="evenodd" d="M14.4059 0.015335C18.1686 -0.156174 21.8579 1.11593 24.748 3.58134L25.0014 3.79948L23.6367 5.19248L23.423 5.01173C20.8996 2.89128 17.6931 1.80587 14.4285 1.96703C11.1639 2.12819 8.07499 3.52437 5.76385 5.88348C3.45271 8.24259 2.08491 11.3956 1.92703 14.728C1.76914 18.0604 2.83249 21.3334 4.90982 23.9091L5.0869 24.1273L3.9573 25.2803L3.72222 25.5203L3.50852 25.2616C1.09324 22.3116 -0.152998 18.5457 0.0150232 14.7049C0.183045 10.8641 1.75316 7.22662 4.41642 4.50808C7.07968 1.78955 10.6432 0.186844 14.4059 0.015335ZM10.5971 7.94678C11.9375 7.1071 13.4791 6.66187 15.0518 6.66024C16.8528 6.66555 18.6057 7.25364 20.0586 8.33995L20.3456 8.55497L18.9657 9.96355L18.7581 9.81708C17.4882 8.9471 15.9617 8.55424 14.4396 8.70566C12.9174 8.85709 11.494 9.54338 10.4125 10.6473C9.33107 11.7512 8.65874 13.2041 8.5104 14.7579C8.36206 16.3117 8.74691 17.8698 9.59921 19.1661L9.7427 19.378L8.36581 20.7834L8.15516 20.4874C7.23125 19.1883 6.67702 17.6538 6.55368 16.0535C6.43034 14.4531 6.74268 12.8491 7.45622 11.4185C8.16975 9.98793 9.25672 8.78646 10.5971 7.94678Z" fill="#B5B5B5"/>
<path fill-rule="evenodd" clip-rule="evenodd" d="M26.6623 5.48853L26.876 5.74718C29.3203 8.69387 30.5901 12.4708 30.4334 16.3286C30.2767 20.1864 28.7049 23.8431 26.03 26.5732C23.3551 29.3032 19.7726 30.907 15.9932 31.0664C12.2138 31.2258 8.51379 29.9291 5.62737 27.4337L5.37398 27.2155L6.73865 25.8225L6.95236 26.0033C9.47457 28.1378 12.6864 29.2345 15.9592 29.0787C19.2319 28.9229 22.3299 27.5259 24.6466 25.1611C26.9633 22.7964 28.3319 19.6341 28.4845 16.2934C28.6371 12.9528 27.5627 9.67423 25.4716 7.09966L25.2945 6.88152L26.6623 5.48853ZM18.6438 23.7122C17.6034 24.1546 16.4872 24.3815 15.3602 24.3797C13.5457 24.3794 11.7787 23.7876 10.3167 22.6906L10.0297 22.4756L11.4066 21.067L11.6173 21.2135C12.8876 22.1118 14.4266 22.5265 15.9658 22.385C17.505 22.2436 18.9467 21.5552 20.0395 20.4397C21.1322 19.3243 21.8067 17.8526 21.9453 16.2815C22.0838 14.7103 21.6776 13.1394 20.7975 11.8427L20.654 11.6277L22.0309 10.2222L22.2416 10.5151C23.4413 12.1892 24.0175 14.2447 23.867 16.3132C23.7165 18.3816 22.8491 20.3277 21.4203 21.8025C20.6279 22.6206 19.6841 23.2697 18.6438 23.7122Z" fill="#FBCC0B"/>
<path fill-rule="evenodd" clip-rule="evenodd" d="M78.5844 24.3938C78.6474 24.2211 78.6755 24.0371 78.6669 23.853V4.74996C78.6755 4.56585 78.6474 4.38186 78.5844 4.20915C78.5213 4.03644 78.4245 3.87859 78.2999 3.74518C78.1753 3.61176 78.0255 3.50555 77.8595 3.43298C77.6935 3.36042 77.5148 3.323 77.3343 3.323C77.1537 3.323 76.975 3.36042 76.809 3.43298C76.643 3.50555 76.4932 3.61176 76.3686 3.74518C76.244 3.87859 76.1472 4.03644 76.0841 4.20915C76.0211 4.38186 75.993 4.56585 76.0016 4.74996V23.853C75.993 24.0371 76.0211 24.2211 76.0841 24.3938C76.1472 24.5665 76.244 24.7244 76.3686 24.8578C76.4932 24.9912 76.643 25.0974 76.809 25.17C76.975 25.2426 77.1537 25.28 77.3343 25.28C77.5148 25.28 77.6935 25.2426 77.8595 25.17C78.0255 25.0974 78.1753 24.9912 78.2999 24.8578C78.4245 24.7244 78.5213 24.5665 78.5844 24.3938ZM51.4766 19.459C51.4766 21.1324 50.0722 22.7778 47.407 22.7778C45.2119 22.7778 43.5694 21.4316 43.1481 19.9046C43.075 19.6281 42.9169 19.383 42.6971 19.2051C42.4773 19.0273 42.2073 18.9262 41.9269 18.9167C41.754 18.9033 41.5802 18.9268 41.4166 18.9855C41.253 19.0443 41.1032 19.1371 40.9766 19.2582C40.85 19.3792 40.7494 19.5257 40.6813 19.6885C40.6131 19.8513 40.5788 20.0267 40.5806 20.2037C40.5834 20.4064 40.6131 20.6077 40.6691 20.8021C41.4873 23.4323 43.8595 25.3768 47.4039 25.3768C51.7391 25.3768 54.1998 22.5067 54.1998 19.1878C54.1998 16.3769 52.2093 14.4043 48.7533 13.5379L46.1186 12.8804C43.5725 12.2509 43.2489 10.9078 43.2489 10.0103C43.2489 8.11865 45.0623 6.89393 47.0254 6.89393C48.8724 6.89393 50.3073 7.6699 50.8049 9.58332C50.8711 9.86818 51.0335 10.1202 51.2635 10.2951C51.4934 10.47 51.7764 10.5567 52.0627 10.54C53.0855 10.54 53.4091 9.95105 53.4091 9.29351C53.4106 9.06089 53.3808 8.82915 53.3206 8.60479C52.5879 5.94657 50.2737 4.24194 47.0528 4.24194C43.6274 4.24194 40.5226 6.57295 40.5226 10.0414C40.5226 11.8053 41.1698 14.3482 45.4439 15.4233L48.0512 16.0809C49.7791 16.5296 51.5071 17.4271 51.4766 19.459ZM68.7448 22.9275C67.829 24.5106 65.8445 25.38 63.9425 25.38C60.1935 25.38 57.0001 22.5099 57.0001 18.0847C57.0001 13.6595 60.1935 10.8206 63.9425 10.8206C65.8476 10.8206 67.8381 11.6277 68.7448 13.2108V12.3444C68.7362 12.1603 68.7643 11.9763 68.8273 11.8036C68.8904 11.6309 68.9872 11.4731 69.1118 11.3397C69.2364 11.2062 69.3862 11.1 69.5522 11.0275C69.7182 10.9549 69.8969 10.9175 70.0774 10.9175C70.258 10.9175 70.4367 10.9549 70.6027 11.0275C70.7687 11.1 70.9185 11.2062 71.0431 11.3397C71.1677 11.4731 71.2645 11.6309 71.3276 11.8036C71.3906 11.9763 71.4187 12.1603 71.4101 12.3444V23.853C71.4187 24.0371 71.3906 24.2211 71.3276 24.3938C71.2645 24.5665 71.1677 24.7244 71.0431 24.8578C70.9185 24.9912 70.7687 25.0974 70.6027 25.17C70.4367 25.2426 70.258 25.28 70.0774 25.28C69.8969 25.28 69.7182 25.2426 69.5522 25.17C69.3862 25.0974 69.2364 24.9912 69.1118 24.8578C68.9872 24.7244 68.8904 24.5665 68.8273 24.3938C68.7643 24.2211 68.7362 24.0371 68.7448 23.853V22.9275ZM64.1654 13.4819C61.7047 13.4819 59.7142 15.2769 59.7142 18.0567C59.7142 20.8364 61.7047 22.7311 64.1654 22.7311C66.6261 22.7311 68.7051 21.0265 68.7051 18.0567C68.7051 15.0868 66.3727 13.4788 64.1776 13.4788L64.1654 13.4819ZM102.03 19.9949C102.03 16.2896 103.145 13.4195 105.779 13.4195C105.99 13.4181 106.2 13.4316 106.408 13.46C107.324 13.5504 108.094 13.3696 108.24 12.5033C108.472 11.0386 106.833 10.8298 105.837 10.8298C104.051 10.8298 102.733 11.8052 102.03 14.2578V12.3444C102.039 12.1603 102.011 11.9763 101.948 11.8036C101.885 11.6308 101.788 11.473 101.663 11.3396C101.539 11.2062 101.389 11.1 101.223 11.0274C101.057 10.9548 100.878 10.9174 100.698 10.9174C100.517 10.9174 100.339 10.9548 100.173 11.0274C100.007 11.1 99.8567 11.2062 99.7321 11.3396C99.6075 11.473 99.5107 11.6308 99.4477 11.8036C99.3846 11.9763 99.3565 12.1603 99.3652 12.3444V23.853C99.3565 24.0371 99.3846 24.221 99.4477 24.3938C99.5107 24.5665 99.6075 24.7243 99.7321 24.8577C99.8567 24.9912 100.007 25.0974 100.173 25.1699C100.339 25.2425 100.517 25.2799 100.698 25.2799C100.878 25.2799 101.057 25.2425 101.223 25.1699C101.389 25.0974 101.539 24.9912 101.663 24.8577C101.788 24.7243 101.885 24.5665 101.948 24.3938C102.011 24.221 102.039 24.0371 102.03 23.853V19.9949ZM113.336 23.853C113.344 24.0371 113.316 24.2211 113.253 24.3938C113.19 24.5665 113.093 24.7244 112.969 24.8578C112.844 24.9912 112.694 25.0974 112.528 25.17C112.362 25.2426 112.184 25.28 112.003 25.28C111.822 25.28 111.644 25.2426 111.478 25.17C111.312 25.0974 111.162 24.9912 111.037 24.8578C110.913 24.7244 110.816 24.5665 110.753 24.3938C110.69 24.2211 110.662 24.0371 110.67 23.853V4.74996C110.662 4.56585 110.69 4.38186 110.753 4.20915C110.816 4.03644 110.913 3.87859 111.037 3.74518C111.162 3.61176 111.312 3.50555 111.478 3.43298C111.644 3.36042 111.822 3.323 112.003 3.323C112.184 3.323 112.362 3.36042 112.528 3.43298C112.694 3.50555 112.844 3.61176 112.969 3.74518C113.093 3.87859 113.19 4.03644 113.253 4.20915C113.316 4.38186 113.344 4.56585 113.336 4.74996V23.853ZM92.1478 11.8023L88.3468 21.2229L84.5642 11.8989C84.4487 11.5564 84.2062 11.2739 83.8888 11.1119C83.5714 10.9499 83.2045 10.9214 82.8668 11.0325C82.1646 11.2382 81.841 12.1077 82.0761 12.7964L86.8784 24.6665L84.7108 30.1076C84.6338 30.2684 84.5898 30.4436 84.5814 30.6225C84.5731 30.8013 84.6006 30.98 84.6623 31.1476C84.724 31.3152 84.8186 31.4681 84.9403 31.5971C85.062 31.7261 85.2081 31.8283 85.3699 31.8976C85.5316 31.9668 85.7055 32.0017 85.8809 31.9999C86.0563 31.9982 86.2295 31.9599 86.3898 31.8874C86.5502 31.8149 86.6944 31.7098 86.8136 31.5784C86.9328 31.4471 87.0244 31.2923 87.0829 31.1235L94.5779 12.8182C94.6509 12.6561 94.6906 12.4805 94.6946 12.3021C94.6985 12.1237 94.6666 11.9464 94.6008 11.7812C94.535 11.6159 94.4367 11.4661 94.312 11.3411C94.1873 11.2161 94.0388 11.1185 93.8757 11.0544C93.5491 10.9233 93.1852 10.9282 92.8621 11.068C92.539 11.2079 92.2825 11.4715 92.1478 11.8023Z" fill="#2D2D2D"/>
</svg>
